{"title":"Alice Through the Looking Glass 2016 TC720P x264 AC3-Garmin","uid":14734177,"size":2398605321,"categoryP":"video","categoryS":"movies","magnet":"?xt=urn:btih:7309e25ab7480369712d806791c94342d3b661c7&amp;dn=Alice+Through+the+Looking+Glass+2016+TC720P+x264+AC3-Garmin&amp;tr=udp%3A%2F%2Ftracker.leechers-paradise.org%3A6969&amp;tr=udp%3A%2F%2Fzer0day.ch%3A1337&amp;tr=udp%3A%2F%2Fopen.demonii.com%3A1337&amp;tr=udp%3A%2F%2Ftracker.coppersurfer.tk%3A6969&amp;tr=udp%3A%2F%2Fexodus.desync.com%3A6969","seeders":1,"leechers":5,"uploader":"makintos13","files":3,"time":1464618763,"description":"Alice Through the Looking Glass 2016 TC720P x264 AC3-Garmin\r\n\r\nScreens:\r\n \nhttps://imgmak.com/TAj\r\n \nhttps://imgmak.com/TAw\r\n \nhttps://imgmak.com/TAJ\r\n \nhttps://imgmak.com/TAW\r\n \nhttps://imgmak.com/TAd\r\n \nhttps://imgmak.com/TAs\r\n \nhttps://imgmak.com/TA4\r\n\r\nComplete name                            : Alice.Through.the.Looking.Glass.2016.TC720P.x264.mkv\r\nFormat                                   : Matroska\r\nFormat version                           : Version 4 / Version 2\r\nFile size                                : 2.18 GiB\r\nDuration                                 : 1h 52mn\r\nOverall bit rate                         : 2 769 Kbps\r\n\r\nVideo\r\nID                                       : 1\r\nFormat                                   : AVC\r\nFormat/Info                              : Advanced Video Codec\r\nFormat profile                           :   \r\nFormat settings, CABAC                   : Yes\r\nFormat settings, ReFrames                : 4 frames\r\nCodec ID                                 : V_MPEG4/ISO/AVC\r\nDuration                                 : 1h 52mn\r\nBit rate                                 : 2 522 Kbps\r\nWidth                                    : 1 280 pixels\r\nHeight                                   : 720 pixels\r\nDisplay aspect ratio                     : 16:9\r\nFrame rate mode                          : Constant\r\nFrame rate                               : 29.970 fps\r\nColor space                              : YUV\r\nChroma subsampling                       : 4:2:0\r\nBit depth                                : 8 bits\r\nScan type                                : Progressive\r\nBits/(Pixel*Frame)                       : 0.091\r\nStream size                              : 1.99 GiB (91%)\r\nWriting library                          : x264 core 148 r2638 7599210\r\nEncoding settings                        : cabac=1 / ref=3 / deblock=1:-1:-1 / analyse=0x3:0x113 / me=hex / subme=7 / psy=1 / psy_rd=1.00:0.15 / mixed_ref=1 / me_range=16 / chroma_me=1 / trellis=1 / 8x8dct=1 / cqm=0 / deadzone=21,11 / fast_pskip=1 / chroma_qp_offset=-3 / threads=9 / lookahead_threads=1 / sliced_threads=0 / nr=0 / decimate=1 / interlaced=0 / bluray_compat=0 / constrained_intra=0 / bframes=3 / b_pyramid=2 / b_adapt=1 / b_bias=0 / direct=1 / weightb=1 / open_gop=0 / weightp=2 / keyint=300 / keyint_min=29 / scenecut=40 / intra_refresh=0 / rc_lookahead=40 / rc=crf / mbtree=1 / crf=23.0 / qcomp=0.60 / qpmin=0 / qpmax=69 / qpstep=4 / ip_ratio=1.40 / aq=1:1.00\r\n\r\nLanguage                                 : English\r\nDefault                                  : Yes\r\nForced                                   : Yes\r\nID                                       : 2\r\nFormat                                   : AC-3\r\nFormat/Info                              : Audio Coding 3\r\nMode extension                           : CM (complete main)\r\nFormat settings, Endianness              : Big\r\nCodec ID                                 : A_AC3\r\nDuration                                 : 1h 52mn\r\nBit rate mode                            : Constant\r\nBit rate                                 : 192 Kbps\r\nChannel(s)                               : 2 channels\r\nChannel positions                        : Front: L R\r\nSampling rate                            : 48.0 KHz\r\nCompression mode                         : Lossy\r\nStream size                              : 155 MiB (7%)\r\nLanguage                                 : English\r\nDefault                                  : Yes\r\nForced                                   : Yes\r\n\r\nSource Video + Source Audio              : Alice.Through.the.Looking.Glass.2016.TC720P.x264.English.rarbt\r\nGenre                                    : Adventure, Family, Fantasy\r\nRelease Date                             : 27 May 2016 (USA) \r\nSample Included                          : Yes","torrent":{"xt":"urn:btih:7309e25ab7480369712d806791c94342d3b661c7","amp;dn":"Alice+Through+the+Looking+Glass+2016+TC720P+x264+AC3-Garmin","amp;tr":["udp%3A%2F%2Ftracker.leechers-paradise.org%3A6969","udp%3A%2F%2Fzer0day.ch%3A1337","udp%3A%2F%2Fopen.demonii.com%3A1337","udp%3A%2F%2Ftracker.coppersurfer.tk%3A6969","udp%3A%2F%2Fexodus.desync.com%3A6969"],"infoHash":"7309e25ab7480369712d806791c94342d3b661c7","infoHashBuffer":{"type":"Buffer","data":[115,9,226,90,183,72,3,105,113,45,128,103,145,201,67,66,211,182,97,199]},"announce":[],"urlList":[]}}